<?xml version="1.0" standalone="no"?>
<!DOCTYPE svg PUBLIC "-//W3C//DTD SVG 20010904//EN"
 "http://www.w3.org/TR/2001/REC-SVG-20010904/DTD/svg10.dtd">
<svg version="1.0" xmlns="http://www.w3.org/2000/svg"
 width="512.000000pt" height="512.000000pt" viewBox="0 0 512.000000 512.000000"
 preserveAspectRatio="xMidYMid meet">
<metadata>
Created by potrace 1.14, written by Peter Selinger 2001-2017
</metadata>
<g transform="translate(0.000000,512.000000) scale(0.100000,-0.100000)"
fill="#000000" stroke="none">
<path d="M2230 4513 l-333 -328 -476 -5 -476 -5 -5 -476 -5 -476 -328 -333
-328 -334 244 -246 c133 -135 282 -285 330 -335 l87 -90 0 -472 0 -473 473 0
472 0 334 -328 c184 -180 337 -328 340 -329 3 -2 157 145 341 326 l335 330
473 0 472 1 0 473 0 472 232 235 c128 129 277 281 332 337 l100 102 -332 335
-332 334 0 476 0 476 -476 0 -476 0 -330 328 c-181 180 -331 328 -332 330 -2
1 -153 -145 -336 -325z m575 -769 c388 -80 712 -346 876 -721 98 -222 115
-560 43 -811 -128 -441 -538 -795 -986 -852 -454 -57 -858 106 -1131 455 -151
195 -224 378 -248 622 -35 355 77 687 317 942 210 224 460 351 747 381 103 11
290 3 382 -16z"/>
<path d="M2400 3346 c-190 -36 -357 -144 -484 -312 -111 -148 -156 -288 -156
-483 0 -223 84 -418 246 -571 114 -107 194 -155 330 -196 77 -23 107 -27 224
-27 212 0 363 54 513 181 131 112 216 239 262 397 36 119 38 307 7 426 -79
298 -345 543 -639 588 -91 14 -219 13 -303 -3z"/>
</g>
</svg>
